<svg id="visual" viewBox="0 0 900 600" width="900" height="600" xmlns="http://www.w3.org/2000/svg" xmlns:xlink="http://www.w3.org/1999/xlink" version="1.1"><rect x="0" y="0" width="900" height="600" fill="#2f2f2f"></rect><path d="M0 152L21.5 153C43 154 86 156 128.8 160.3C171.7 164.7 214.3 171.3 257.2 184.5C300 197.7 343 217.3 385.8 219.7C428.7 222 471.3 207 514.2 207C557 207 600 222 642.8 227.3C685.7 232.7 728.3 228.3 771.2 223C814 217.7 857 211.3 878.5 208.2L900 205L900 0L878.5 0C857 0 814 0 771.2 0C728.3 0 685.7 0 642.8 0C600 0 557 0 514.2 0C471.3 0 428.7 0 385.8 0C343 0 300 0 257.2 0C214.3 0 171.7 0 128.8 0C86 0 43 0 21.5 0L0 0Z" fill="#fa7268"></path><path d="M0 157L21.5 160.2C43 163.3 86 169.7 128.8 174.5C171.7 179.3 214.3 182.7 257.2 182.7C300 182.7 343 179.3 385.8 179C428.7 178.7 471.3 181.3 514.2 178.7C557 176 600 168 642.8 170.5C685.7 173 728.3 186 771.2 185.7C814 185.3 857 171.7 878.5 164.8L900 158L900 0L878.5 0C857 0 814 0 771.2 0C728.3 0 685.7 0 642.8 0C600 0 557 0 514.2 0C471.3 0 428.7 0 385.8 0C343 0 300 0 257.2 0C214.3 0 171.7 0 128.8 0C86 0 43 0 21.5 0L0 0Z" fill="#d45982"></path><path d="M0 152L21.5 141.7C43 131.3 86 110.7 128.8 104.3C171.7 98 214.3 106 257.2 107.2C300 108.3 343 102.7 385.8 100.5C428.7 98.3 471.3 99.7 514.2 101.3C557 103 600 105 642.8 111.7C685.7 118.3 728.3 129.7 771.2 135.7C814 141.7 857 142.3 878.5 142.7L900 143L900 0L878.5 0C857 0 814 0 771.2 0C728.3 0 685.7 0 642.8 0C600 0 557 0 514.2 0C471.3 0 428.7 0 385.8 0C343 0 300 0 257.2 0C214.3 0 171.7 0 128.8 0C86 0 43 0 21.5 0L0 0Z" fill="#9c508e"></path><path d="M0 89L21.5 85.3C43 81.7 86 74.3 128.8 72.5C171.7 70.7 214.3 74.3 257.2 73.8C300 73.3 343 68.7 385.8 72.8C428.7 77 471.3 90 514.2 91.2C557 92.3 600 81.7 642.8 78.7C685.7 75.7 728.3 80.3 771.2 87.5C814 94.7 857 104.3 878.5 109.2L900 114L900 0L878.5 0C857 0 814 0 771.2 0C728.3 0 685.7 0 642.8 0C600 0 557 0 514.2 0C471.3 0 428.7 0 385.8 0C343 0 300 0 257.2 0C214.3 0 171.7 0 128.8 0C86 0 43 0 21.5 0L0 0Z" fill="#5a4a86"></path><path d="M0 40L21.5 39.2C43 38.3 86 36.7 128.8 35C171.7 33.3 214.3 31.7 257.2 36.5C300 41.3 343 52.7 385.8 56C428.7 59.3 471.3 54.7 514.2 48.5C557 42.3 600 34.7 642.8 35.8C685.7 37 728.3 47 771.2 51.2C814 55.3 857 53.7 878.5 52.8L900 52L900 0L878.5 0C857 0 814 0 771.2 0C728.3 0 685.7 0 642.8 0C600 0 557 0 514.2 0C471.3 0 428.7 0 385.8 0C343 0 300 0 257.2 0C214.3 0 171.7 0 128.8 0C86 0 43 0 21.5 0L0 0Z" fill="#143f6b"></path></svg>