<svg id="visual" viewBox="0 0 900 600" width="900" height="600" xmlns="http://www.w3.org/2000/svg" xmlns:xlink="http://www.w3.org/1999/xlink" version="1.1"><rect x="0" y="0" width="900" height="600" fill="#2f2f2f"></rect><path d="M0 446L21.5 445C43 444 86 442 128.8 437.7C171.7 433.3 214.3 426.7 257.2 413.5C300 400.3 343 380.7 385.8 378.3C428.7 376 471.3 391 514.2 391C557 391 600 376 642.8 370.7C685.7 365.3 728.3 369.7 771.2 375C814 380.3 857 386.7 878.5 389.8L900 393L900 601L878.5 601C857 601 814 601 771.2 601C728.3 601 685.7 601 642.8 601C600 601 557 601 514.2 601C471.3 601 428.7 601 385.8 601C343 601 300 601 257.2 601C214.3 601 171.7 601 128.8 601C86 601 43 601 21.5 601L0 601Z" fill="#fa7268"></path><path d="M0 441L21.5 437.8C43 434.7 86 428.3 128.8 423.5C171.7 418.7 214.3 415.3 257.2 415.3C300 415.3 343 418.7 385.8 419C428.7 419.3 471.3 416.7 514.2 419.3C557 422 600 430 642.8 427.5C685.7 425 728.3 412 771.2 412.3C814 412.7 857 426.3 878.5 433.2L900 440L900 601L878.5 601C857 601 814 601 771.2 601C728.3 601 685.7 601 642.8 601C600 601 557 601 514.2 601C471.3 601 428.7 601 385.8 601C343 601 300 601 257.2 601C214.3 601 171.7 601 128.8 601C86 601 43 601 21.5 601L0 601Z" fill="#d45982"></path><path d="M0 446L21.5 456.3C43 466.7 86 487.3 128.8 493.7C171.7 500 214.3 492 257.2 490.8C300 489.7 343 495.3 385.8 497.5C428.7 499.7 471.3 498.3 514.2 496.7C557 495 600 493 642.8 486.3C685.7 479.7 728.3 468.3 771.2 462.3C814 456.3 857 455.7 878.5 455.3L900 455L900 601L878.5 601C857 601 814 601 771.2 601C728.3 601 685.7 601 642.8 601C600 601 557 601 514.2 601C471.3 601 428.7 601 385.8 601C343 601 300 601 257.2 601C214.3 601 171.7 601 128.8 601C86 601 43 601 21.5 601L0 601Z" fill="#9c508e"></path><path d="M0 509L21.5 512.7C43 516.3 86 523.7 128.8 525.5C171.7 527.3 214.3 523.7 257.2 524.2C300 524.7 343 529.3 385.8 525.2C428.7 521 471.3 508 514.2 506.8C557 505.7 600 516.3 642.8 519.3C685.7 522.3 728.3 517.7 771.2 510.5C814 503.3 857 493.7 878.5 488.8L900 484L900 601L878.5 601C857 601 814 601 771.2 601C728.3 601 685.7 601 642.8 601C600 601 557 601 514.2 601C471.3 601 428.7 601 385.8 601C343 601 300 601 257.2 601C214.3 601 171.7 601 128.8 601C86 601 43 601 21.5 601L0 601Z" fill="#5a4a86"></path><path d="M0 558L21.5 558.8C43 559.7 86 561.3 128.8 563C171.7 564.7 214.3 566.3 257.2 561.5C300 556.7 343 545.3 385.8 542C428.7 538.7 471.3 543.3 514.2 549.5C557 555.7 600 563.3 642.8 562.2C685.7 561 728.3 551 771.2 546.8C814 542.7 857 544.3 878.5 545.2L900 546L900 601L878.5 601C857 601 814 601 771.2 601C728.3 601 685.7 601 642.8 601C600 601 557 601 514.2 601C471.3 601 428.7 601 385.8 601C343 601 300 601 257.2 601C214.3 601 171.7 601 128.8 601C86 601 43 601 21.5 601L0 601Z" fill="#143f6b"></path></svg>